<?xml version="1.0" standalone="no"?>
<!DOCTYPE svg PUBLIC "-//W3C//DTD SVG 20010904//EN"
 "http://www.w3.org/TR/2001/REC-SVG-20010904/DTD/svg10.dtd">
<svg version="1.0" xmlns="http://www.w3.org/2000/svg"
 width="512.000000pt" height="512.000000pt" viewBox="0 0 512.000000 512.000000"
 preserveAspectRatio="xMidYMid meet">

<g transform="translate(0.000000,512.000000) scale(0.100000,-0.100000)"
fill="#000000" stroke="none">
<path d="M1083 5105 c-115 -32 -209 -105 -260 -202 -46 -85 -473 -1401 -480
-1477 -11 -118 40 -248 132 -335 61 -57 118 -88 236 -126 l86 -28 -19 -59
c-31 -101 -22 -175 31 -250 40 -57 93 -85 266 -140 88 -28 164 -54 168 -58 5
-4 -1 -165 -12 -358 -29 -486 -30 -489 -285 -690 -82 -64 -157 -122 -166 -129
-13 -9 -26 -4 -71 26 -31 21 -88 48 -127 60 l-72 24 0 71 c0 87 -28 154 -87
207 -60 54 -99 64 -246 64 -129 0 -129 0 -153 -28 l-24 -28 0 -795 0 -796 30
-30 30 -30 133 4 c150 3 184 15 248 80 47 48 69 112 69 199 l0 67 46 11 c139
35 274 149 333 282 l34 75 225 175 c124 95 250 196 280 224 79 72 147 166 202
280 79 165 91 232 111 628 8 143 17 237 23 237 5 0 86 -25 180 -56 149 -49
178 -56 227 -51 109 10 191 78 229 192 l21 63 117 -38 c1058 -350 1105 -363
1195 -325 50 21 104 71 128 117 15 30 24 38 37 33 106 -41 187 -40 267 3 77
41 101 88 189 358 153 468 158 484 151 538 -12 94 -71 172 -159 211 l-48 21
318 140 c175 76 332 148 348 159 48 33 69 69 73 127 4 59 -21 116 -67 149 -14
10 -261 96 -550 190 -289 93 -709 231 -935 304 -225 74 -619 202 -875 285
-256 83 -658 215 -895 292 -471 153 -522 164 -632 133z m1042 -450 c479 -156
1176 -383 1550 -505 374 -122 750 -244 835 -272 85 -28 163 -57 172 -66 10 -8
18 -29 18 -47 0 -18 -8 -42 -18 -54 -17 -21 -508 -241 -538 -241 -9 0 -394
123 -857 274 -463 151 -1195 390 -1626 530 -431 141 -785 257 -786 258 -7 10
96 292 116 316 53 66 148 106 224 96 22 -3 432 -133 910 -289z m319 -819 c884
-288 1608 -525 1611 -527 2 -3 -75 -245 -171 -539 -183 -563 -186 -570 -244
-570 -16 0 -138 36 -272 79 -280 91 -1465 477 -1798 586 -124 41 -373 122
-555 181 -181 58 -346 115 -366 124 -86 44 -149 163 -135 253 11 70 299 937
311 937 7 0 735 -236 1619 -524z m1833 -691 c34 -14 53 -41 53 -76 0 -12 -50
-174 -110 -360 -116 -356 -123 -369 -181 -369 -22 0 -87 17 -97 26 -3 2 212
674 253 792 5 14 22 11 82 -13z m-2649 -483 c337 -110 616 -202 619 -205 9 -9
-18 -81 -40 -104 -13 -15 -32 -23 -53 -23 -27 0 -985 305 -1152 366 -28 10
-48 26 -58 45 -13 27 -13 35 2 83 16 51 18 53 43 46 14 -4 302 -98 639 -208z
m-1317 -1151 l24 -19 3 -630 2 -630 -23 -28 c-20 -23 -34 -28 -85 -32 l-62 -4
0 681 0 681 59 0 c43 0 65 -5 82 -19z m285 -371 c66 -37 118 -99 145 -169 28
-75 23 -195 -10 -261 -39 -77 -109 -141 -186 -170 l-25 -10 0 320 c0 249 3
320 13 320 6 0 35 -13 63 -30z"/>
<path d="M972 4054 c-149 -74 -183 -277 -68 -402 11 -13 39 -33 61 -44 50 -26
688 -235 743 -244 97 -15 210 45 256 137 51 104 29 228 -55 304 -48 43 -18 31
-427 166 -381 124 -416 130 -510 83z m469 -254 c358 -117 379 -127 379 -187 0
-34 -42 -73 -80 -73 -28 0 -650 199 -692 221 -23 12 -38 42 -38 74 0 32 41 75
71 75 12 0 174 -50 360 -110z"/>
<path d="M2225 3621 c-11 -5 -27 -17 -36 -27 -18 -20 -79 -197 -79 -227 0 -29
54 -77 87 -77 51 0 69 23 108 141 33 99 36 113 24 141 -8 19 -25 36 -45 44
-19 8 -35 14 -36 13 -2 0 -12 -4 -23 -8z"/>
<path d="M2527 3500 c-28 -22 -87 -182 -87 -236 0 -53 57 -91 110 -73 36 13
43 25 81 137 40 119 37 151 -18 180 -31 17 -57 15 -86 -8z"/>
<path d="M2546 2120 c-61 -16 -149 -67 -193 -113 -48 -50 -927 -1350 -953
-1411 -50 -112 -45 -242 15 -363 55 -112 147 -185 272 -218 86 -22 1830 -22
1916 0 125 33 217 106 272 218 60 121 65 251 15 364 -27 61 -905 1360 -954
1411 -22 24 -73 59 -113 79 -61 30 -83 36 -155 39 -45 2 -100 -1 -122 -6z
m217 -193 c23 -14 49 -33 58 -43 47 -54 908 -1345 919 -1377 7 -22 10 -67 8
-102 -7 -111 -83 -201 -191 -224 -67 -15 -1772 -15 -1830 0 -138 34 -222 193
-175 330 18 53 908 1368 945 1396 77 59 185 67 266 20z"/>
<path d="M2562 1691 c-65 -23 -117 -70 -148 -136 -22 -47 -24 -61 -23 -230 0
-194 6 -228 53 -290 15 -19 48 -47 74 -62 41 -24 58 -28 127 -28 69 0 86 4
127 28 53 31 94 79 114 134 18 50 19 369 2 427 -19 63 -100 140 -167 160 -69
20 -93 20 -159 -3z"/>
<path d="M2529 822 c-187 -97 -184 -355 5 -455 57 -30 165 -30 222 0 87 46
135 118 142 216 15 196 -194 331 -369 239z"/>
</g>
</svg>
