<?xml version="1.0" standalone="no"?>
<!DOCTYPE svg PUBLIC "-//W3C//DTD SVG 20010904//EN"
 "http://www.w3.org/TR/2001/REC-SVG-20010904/DTD/svg10.dtd">
<svg version="1.0" xmlns="http://www.w3.org/2000/svg"
 width="1000.000000pt" height="1000.000000pt" viewBox="0 0 1000.000000 1000.000000"
 preserveAspectRatio="xMidYMid meet">

<g transform="translate(0.000000,1000.000000) scale(0.100000,-0.100000)"
fill="#000000" stroke="none">
<path d="M4967 9553 c-86 -223 -154 -581 -191 -1014 -17 -187 -40 -698 -33
-705 2 -2 40 -11 83 -20 107 -21 271 -21 361 0 l72 17 -5 132 c-25 674 -75
1087 -174 1439 -27 97 -73 218 -83 218 -2 0 -16 -30 -30 -67z m147 -770 c28
-199 56 -599 56 -795 l0 -58 -51 0 -52 0 6 48 c4 26 9 228 13 450 4 221 10
402 14 402 4 0 10 -21 14 -47z"/>
<path d="M4393 8290 c-108 -28 -248 -77 -344 -119 l-45 -20 27 -218 c16 -120
28 -227 29 -238 0 -15 -45 -54 -172 -146 -95 -70 -182 -132 -193 -138 -18 -11
-47 0 -230 83 -115 53 -215 95 -222 94 -28 -7 -211 -249 -292 -386 l-31 -52
164 -175 163 -176 -69 -217 c-39 -119 -76 -222 -83 -227 -7 -6 -114 -30 -237
-54 l-226 -45 -6 -59 c-8 -77 -6 -377 2 -442 l7 -50 232 -46 c128 -25 235 -48
237 -50 2 -2 34 -98 71 -214 37 -115 69 -215 72 -221 2 -6 -66 -87 -152 -180
-86 -93 -159 -175 -162 -182 -11 -25 279 -428 317 -440 6 -2 102 39 214 92
113 53 209 97 214 98 9 3 377 -256 387 -272 3 -5 -7 -113 -22 -240 -23 -200
-25 -233 -12 -241 29 -18 217 -87 313 -115 96 -27 99 -27 113 -9 8 11 10 26 6
35 -5 8 -9 263 -11 567 l-2 552 -66 37 c-322 180 -559 507 -631 871 -21 108
-23 346 -4 453 71 397 333 746 693 923 l107 52 3 280 c3 278 3 280 27 314 24
33 25 42 28 220 l4 186 -41 73 c-22 39 -46 72 -53 72 -7 -1 -63 -14 -124 -30z"/>
<path d="M5429 8244 l-42 -76 5 -182 c4 -173 6 -184 29 -215 24 -32 24 -34 27
-315 l3 -282 37 -13 c125 -44 314 -174 428 -293 225 -237 339 -509 351 -833
10 -289 -56 -524 -215 -765 -99 -150 -330 -356 -459 -409 l-33 -13 -3 -552
c-2 -303 -6 -562 -10 -576 -15 -51 1 -54 119 -20 139 41 334 119 334 134 0 6
-14 112 -30 236 -27 211 -28 226 -12 241 17 16 337 250 360 263 7 4 101 -33
223 -89 116 -53 217 -94 224 -91 28 10 219 267 288 387 l27 45 -163 174 c-98
105 -161 179 -159 189 11 47 135 428 143 436 6 6 112 30 237 55 l227 46 8 64
c13 102 2 460 -15 475 -7 7 -114 31 -238 54 -123 23 -225 43 -226 44 -1 1 -35
103 -76 227 l-75 226 159 173 c87 96 158 178 158 184 0 35 -279 410 -316 424
-7 3 -105 -38 -217 -91 -111 -53 -208 -96 -215 -96 -7 0 -99 61 -203 136 -185
134 -189 137 -184 168 8 51 45 394 45 421 0 27 -4 30 -166 90 -77 29 -182 59
-306 89 -25 6 -29 1 -69 -70z"/>
<path d="M4710 7715 c-19 -21 -20 -33 -20 -379 l0 -358 -55 -176 -55 -176 0
-1422 0 -1423 57 -16 c110 -32 199 -46 338 -51 145 -6 233 5 388 51 l57 16 0
1421 0 1421 -55 177 -55 177 0 360 c0 437 11 406 -136 378 -108 -20 -285 -17
-386 8 -55 14 -58 13 -78 -8z m534 -937 c37 -81 65 -152 61 -158 -7 -11 -85
-14 -85 -2 0 9 -48 269 -56 302 -11 48 13 5 80 -142z m66 -768 l0 -420 -45 0
-45 0 0 414 c0 458 -5 422 63 425 l27 1 0 -420z"/>
<path d="M4591 3650 c-7 -22 -6 -41 5 -74 48 -140 215 -216 448 -203 116 6
181 24 248 66 83 53 142 159 118 213 l-11 24 -112 -30 c-100 -26 -129 -29
-262 -30 -144 0 -319 23 -400 54 -20 8 -25 5 -34 -20z"/>
<path d="M1320 2115 l0 -905 320 0 320 0 0 340 0 340 520 0 520 0 0 225 0 225
-520 0 -520 0 0 340 0 340 -320 0 -320 0 0 -905z"/>
<path d="M2030 2795 l0 -225 615 0 615 0 0 225 0 225 -615 0 -615 0 0 -225z"/>
<path d="M3380 2115 l0 -905 325 0 325 0 0 340 0 340 374 0 c392 0 465 -6 503
-42 50 -47 37 -125 -27 -162 -33 -20 -53 -21 -407 -24 l-373 -3 0 -225 0 -224
523 0 c307 0 548 4 585 10 175 29 289 111 344 248 21 52 23 73 23 257 0 188
-1 204 -24 259 -29 73 -97 144 -163 171 -27 11 -48 23 -48 26 0 3 18 14 40 24
50 23 103 80 121 131 10 26 14 86 14 184 0 121 -4 157 -22 216 -48 153 -152
235 -343 270 -56 10 -196 13 -562 14 l-488 0 0 -224 0 -224 338 -4 c226 -3
346 -8 364 -16 47 -20 68 -48 68 -93 0 -51 -13 -74 -53 -96 -29 -16 -72 -18
-409 -21 l-378 -3 0 340 0 341 -325 0 -325 0 0 -905z"/>
<path d="M5710 2115 l0 -905 325 0 325 0 0 905 0 905 -325 0 -325 0 0 -905z"/>
<path d="M6420 2570 l0 -450 227 -455 228 -455 322 0 323 0 257 513 258 512 3
-512 2 -513 320 0 320 0 0 905 0 905 -450 0 -450 0 -291 -582 -292 -583 -291
583 -291 582 -97 0 -98 0 0 -450z"/>
<path d="M1215 963 c-30 -44 -31 -53 -7 -52 9 0 34 21 56 45 l39 44 -31 0
c-25 0 -37 -8 -57 -37z"/>
<path d="M8796 960 c-32 -48 -32 -52 -5 -48 12 2 37 22 57 46 l35 42 -30 0
c-24 0 -36 -8 -57 -40z"/>
<path d="M720 760 l0 -230 30 0 30 0 0 105 0 105 115 0 115 0 0 25 0 25 -115
0 -115 0 0 75 0 75 130 0 130 0 0 25 0 25 -160 0 -160 0 0 -230z"/>
<path d="M1430 760 l0 -230 25 0 c16 0 25 6 25 15 0 20 5 19 40 -6 44 -33 114
-22 156 24 90 98 60 270 -53 308 -37 12 -83 1 -115 -28 -17 -15 -18 -13 -18
65 l0 82 -30 0 -30 0 0 -230z m215 39 c17 -16 20 -33 20 -98 0 -70 -3 -82 -24
-105 -29 -30 -83 -35 -118 -11 -44 31 -53 146 -16 203 28 46 98 51 138 11z"/>
<path d="M2020 960 c0 -27 3 -30 30 -30 27 0 30 3 30 30 0 27 -3 30 -30 30
-27 0 -30 -3 -30 -30z"/>
<path d="M3040 760 l0 -230 125 0 c105 0 132 3 164 20 70 35 93 132 45 189
-14 17 -33 31 -42 31 -12 0 -9 7 12 28 34 37 43 89 22 130 -27 52 -59 62 -201
62 l-125 0 0 -230z m258 160 c28 -26 29 -73 2 -100 -17 -17 -33 -20 -110 -20
l-90 0 0 70 0 70 88 0 c75 0 92 -3 110 -20z m-16 -180 c40 -12 58 -34 58 -74
0 -66 -36 -86 -155 -86 l-85 0 0 78 c0 43 3 82 7 85 10 11 134 8 175 -3z"/>
<path d="M3840 760 l0 -230 25 0 25 0 0 230 0 230 -25 0 -25 0 0 -230z"/>
<path d="M3980 960 c0 -27 3 -30 30 -30 27 0 30 3 30 30 0 27 -3 30 -30 30
-27 0 -30 -3 -30 -30z"/>
<path d="M4450 960 c0 -27 3 -30 30 -30 27 0 30 3 30 30 0 27 -3 30 -30 30
-27 0 -30 -3 -30 -30z"/>
<path d="M6090 905 l0 -84 -25 23 c-65 60 -171 30 -204 -57 -17 -45 -13 -137
9 -184 26 -58 71 -85 133 -80 26 2 56 12 67 22 18 16 20 16 20 2 0 -12 9 -17
30 -17 l30 0 0 230 0 230 -30 0 -30 0 0 -85z m-57 -86 c37 -17 52 -54 52 -130
0 -58 -4 -71 -24 -93 -31 -33 -91 -36 -120 -7 -40 40 -50 158 -18 202 28 36
69 47 110 28z"/>
<path d="M6780 760 l0 -230 31 0 31 0 -4 194 c-2 107 -2 194 0 192 1 -2 31
-88 66 -192 l63 -189 33 0 33 0 63 189 c35 104 65 190 66 192 2 1 1 -85 -1
-192 l-3 -194 31 0 31 0 0 230 0 230 -42 0 -43 0 -64 -190 c-35 -105 -67 -190
-70 -190 -3 0 -35 86 -70 190 l-64 190 -44 0 -43 0 0 -230z"/>
<path d="M8040 960 c0 -25 4 -30 25 -30 21 0 25 5 25 30 0 25 -4 30 -25 30
-21 0 -25 -5 -25 -30z"/>
<path d="M8510 960 c0 -27 3 -30 30 -30 27 0 30 3 30 30 0 27 -3 30 -30 30
-27 0 -30 -3 -30 -30z"/>
<path d="M1175 874 c-53 -13 -78 -29 -91 -60 -18 -44 -18 -44 11 -44 15 0 29
8 36 23 17 31 28 37 75 37 45 0 74 -22 74 -57 0 -30 -17 -38 -98 -51 -81 -11
-106 -27 -122 -77 -32 -97 91 -163 184 -100 43 29 46 30 46 10 0 -16 30 -35
55 -35 23 0 32 31 12 42 -14 7 -17 27 -17 121 0 122 -10 155 -50 174 -31 14
-89 23 -115 17z m105 -214 c0 -31 -6 -47 -25 -64 -30 -28 -76 -39 -109 -27
-36 14 -49 67 -22 90 10 9 105 34 149 40 4 1 7 -17 7 -39z"/>
<path d="M1930 873 c-8 -3 -27 -17 -42 -31 l-28 -26 0 27 c0 22 -5 27 -25 27
l-25 0 0 -170 0 -170 24 0 c24 0 24 1 28 119 3 134 13 155 74 167 29 5 34 10
34 35 0 29 -9 33 -40 22z"/>
<path d="M2260 869 c-70 -21 -110 -85 -110 -176 0 -71 22 -119 70 -151 29 -20
44 -23 89 -19 47 3 59 9 88 40 41 46 45 87 8 87 -14 0 -25 -6 -25 -14 0 -30
-41 -66 -75 -66 -47 0 -64 8 -80 41 -19 36 -19 132 0 168 31 62 117 63 145 3
18 -37 60 -46 60 -12 0 75 -84 124 -170 99z"/>
<path d="M2582 870 c-41 -10 -78 -43 -85 -76 -4 -21 0 -24 24 -24 18 0 29 5
29 13 0 25 36 47 76 47 60 0 90 -32 74 -76 -7 -17 -20 -22 -75 -28 -109 -11
-145 -39 -145 -111 0 -85 97 -122 187 -71 39 22 42 23 46 5 5 -20 48 -35 72
-25 22 8 18 33 -5 39 -19 5 -20 14 -20 124 0 123 -8 151 -48 172 -27 14 -94
20 -130 11z m106 -267 c-21 -26 -77 -45 -110 -38 -48 11 -62 83 -20 100 9 4
44 13 77 19 l60 11 3 -38 c2 -22 -3 -45 -10 -54z"/>
<path d="M3566 870 c-66 -21 -109 -88 -109 -171 0 -105 53 -169 145 -177 63
-5 109 21 142 78 29 48 28 141 0 195 -33 63 -111 96 -178 75z m104 -67 c22
-20 33 -40 37 -70 13 -99 -25 -163 -97 -163 -53 0 -86 34 -96 97 -18 125 77
207 156 136z"/>
<path d="M4682 870 c-41 -10 -78 -43 -85 -76 -4 -21 0 -24 24 -24 18 0 29 5
29 13 0 25 36 47 76 47 60 0 90 -32 74 -76 -7 -17 -20 -22 -75 -28 -109 -11
-145 -39 -145 -111 0 -85 97 -122 187 -71 39 22 42 23 46 5 5 -20 48 -35 72
-25 22 8 18 33 -5 39 -19 5 -20 14 -20 124 0 123 -8 151 -48 172 -27 14 -94
20 -130 11z m106 -267 c-21 -26 -77 -45 -110 -38 -48 11 -62 83 -20 100 9 4
44 13 77 19 l60 11 3 -38 c2 -22 -3 -45 -10 -54z"/>
<path d="M5080 869 c-14 -6 -35 -20 -47 -31 l-23 -21 0 26 c0 22 -5 27 -25 27
l-25 0 0 -170 0 -170 25 0 25 0 0 100 c0 138 20 182 88 196 25 5 36 1 56 -19
25 -25 26 -30 26 -152 l0 -125 25 0 25 0 0 138 c0 154 -6 173 -66 198 -38 16
-50 16 -84 3z"/>
<path d="M5425 873 c-48 -10 -77 -28 -90 -54 -21 -39 -19 -49 10 -49 14 0 25
5 25 10 0 24 41 50 78 50 50 0 84 -24 80 -57 -4 -32 -16 -38 -102 -51 -78 -12
-112 -37 -122 -87 -8 -43 16 -89 56 -105 39 -16 105 -8 140 18 l26 20 21 -24
c12 -13 31 -24 43 -24 30 0 37 28 11 46 -19 14 -21 24 -21 135 0 135 -6 149
-77 168 -39 11 -45 12 -78 4z m105 -212 c0 -71 -89 -124 -146 -86 -28 18 -33
65 -9 85 12 10 81 28 148 39 4 0 7 -16 7 -38z"/>
<path d="M6315 865 c-50 -18 -81 -55 -96 -118 -21 -90 10 -180 75 -211 68 -32
152 -15 195 40 44 57 5 76 -47 24 -25 -24 -39 -30 -74 -30 -52 0 -84 27 -94
78 l-6 32 126 0 126 0 0 33 c0 42 -37 115 -70 138 -36 26 -89 31 -135 14z
m123 -71 c12 -14 22 -36 22 -50 0 -24 -1 -24 -96 -24 l-96 0 7 28 c19 79 111
105 163 46z"/>
<path d="M7803 873 c-12 -2 -33 -15 -47 -28 l-26 -24 0 24 c0 20 -5 25 -25 25
l-25 0 0 -170 0 -170 25 0 25 0 0 106 c0 118 14 163 56 183 36 16 58 14 85 -8
23 -18 24 -27 28 -150 3 -131 3 -131 27 -131 l24 0 0 129 c0 71 -4 141 -10
155 -16 42 -81 70 -137 59z"/>
<path d="M8265 865 c-50 -18 -81 -55 -96 -118 -21 -90 10 -180 75 -211 74 -35
164 -8 192 59 19 47 18 55 -9 55 -17 0 -28 -10 -40 -35 -27 -56 -104 -62 -141
-12 -30 40 -30 144 0 184 42 57 119 53 144 -8 9 -20 19 -29 36 -29 30 0 31 23
4 67 -32 54 -97 73 -165 48z"/>
<path d="M8746 870 c-66 -21 -106 -85 -106 -173 0 -102 64 -177 153 -177 124
0 197 147 135 270 -34 67 -113 101 -182 80z m93 -55 c39 -19 54 -63 49 -135
-6 -78 -33 -110 -93 -110 -31 0 -47 6 -63 23 -50 53 -51 155 -2 207 31 34 65
38 109 15z"/>
<path d="M9140 869 c-14 -6 -35 -20 -47 -31 l-23 -21 0 26 c0 22 -5 27 -25 27
l-25 0 0 -170 0 -170 25 0 25 0 0 100 c0 138 20 182 88 196 25 5 36 1 56 -19
25 -25 26 -30 26 -152 l0 -125 25 0 25 0 0 138 c0 154 -6 173 -66 198 -38 16
-50 16 -84 3z"/>
<path d="M2027 863 c-4 -3 -7 -80 -7 -170 l0 -163 30 0 30 0 0 170 0 170 -23
0 c-13 0 -27 -3 -30 -7z"/>
<path d="M3980 701 l0 -171 30 0 30 0 -2 168 -3 167 -27 3 -28 3 0 -170z"/>
<path d="M4092 858 c3 -7 32 -84 63 -171 l58 -158 31 3 c29 3 32 8 93 168 35
91 63 166 63 168 0 1 -13 2 -29 2 -27 0 -30 -4 -76 -137 -26 -76 -49 -140 -51
-142 -1 -1 -23 59 -47 135 l-44 139 -33 3 c-24 3 -31 0 -28 -10z"/>
<path d="M4450 701 l0 -171 30 0 30 0 -2 168 -3 167 -27 3 -28 3 0 -170z"/>
<path d="M7320 724 l0 -146 29 -29 c23 -23 38 -29 71 -29 42 0 100 23 100 40
0 6 5 10 10 10 6 0 10 -9 10 -20 0 -15 7 -20 25 -20 l25 0 0 171 0 170 -27 -3
-28 -3 -5 -120 c-6 -154 -18 -175 -95 -175 -56 0 -65 24 -65 172 l0 128 -25 0
-25 0 0 -146z"/>
<path d="M8040 700 l0 -170 25 0 25 0 0 170 0 170 -25 0 -25 0 0 -170z"/>
<path d="M8510 701 l0 -171 30 0 30 0 -2 168 -3 167 -27 3 -28 3 0 -170z"/>
</g>
</svg>
